<?xml version="1.0" encoding="UTF-8"?><svg id="a" xmlns="http://www.w3.org/2000/svg" xmlns:xlink="http://www.w3.org/1999/xlink" viewBox="0 0 256 256"><defs><radialGradient id="b" cx="40.18" cy="120.09" fx="40.18" fy="120.09" r="38.97" gradientUnits="userSpaceOnUse"><stop offset=".18" stop-color="#f4e8d9"/><stop offset=".59" stop-color="#edd089"/><stop offset="1" stop-color="#c08329"/></radialGradient><linearGradient id="c" x1="2.09" y1="120.09" x2="78.27" y2="120.09" gradientUnits="userSpaceOnUse"><stop offset="0" stop-color="#dee3e6"/><stop offset=".25" stop-color="#fffde5"/><stop offset=".4" stop-color="#f0ebd8"/><stop offset=".6" stop-color="#d6cdc1"/><stop offset=".79" stop-color="#ededee"/><stop offset="1" stop-color="#d8d5bb"/></linearGradient><radialGradient id="d" cx="119.04" fx="119.04" r="41.69" xlink:href="#b"/><linearGradient id="e" x1="76.2" x2="161.89" xlink:href="#c"/><radialGradient id="f" cx="208.66" fx="208.66" r="41.82" xlink:href="#b"/><linearGradient id="g" x1="165.55" x2="251.76" xlink:href="#c"/></defs><rect y=".5" width="256" height="256" style="stroke-width:0px;"/><path d="m75.91,161.62H3.93l45.71-70.29c4.12-6.36,6.18-9.84,6.18-10.45,0-.77-1.42-1.16-4.25-1.16-12.1,0-19.92,1.08-23.43,3.23-6.27,3.88-10.22,13.15-11.85,27.8h-1.8v-32.19h61.93l-45.71,70.29c-4.12,6.28-6.18,9.67-6.18,10.19,0,.69,1.33,1.03,3.99,1.03,11.76,0,19.44-.34,23.05-1.03,6.78-1.29,11.8-4.39,15.06-9.3,3.69-5.51,6.18-14.52,7.47-27.01h1.8v38.89Z" style="fill:url(#b); stroke:url(#c); stroke-miterlimit:10; stroke-width:2px;"/><path d="m110.42,118.48v34.49c0,2.41.13,3.92.38,4.52.26.6,1.07,1.14,2.44,1.62,1.37.47,2.95.75,4.75.84,1.8.09,5.01.13,9.63.13,9.76,0,17.14-2.91,22.15-8.72,5.01-5.81,8.16-15.14,9.44-27.98h1.67v38.24h-83.69v-1.29c7.64,0,12.7-.47,15.19-1.42.86-.34,1.44-.8,1.74-1.36.3-.56.45-2.05.45-4.46v-66.14c0-2.49-.17-4.05-.51-4.65-.17-.34-.73-.69-1.67-1.03-.95-.34-2.88-.69-5.79-1.03-2.92-.34-6.05-.52-9.4-.52v-1.16h79.45v32.19h-1.67c0-6.64-1.67-12.97-5.01-19.01-4.45-8.01-10.74-12.02-18.87-12.02-3.25,0-6.53.02-9.82.06-3.3.04-6.23.45-8.79,1.23-.77.35-1.31.8-1.61,1.36-.3.56-.45,2.1-.45,4.6v30.21c8.88,0,14.38-.9,16.52-2.7,3.24-2.75,5.51-10.13,6.79-22.15h1.55v50.73h-1.55c-1.28-11.76-3.5-19.01-6.66-21.76-2.22-1.89-7.77-2.83-16.65-2.83Z" style="fill:url(#d); stroke:url(#e); stroke-miterlimit:10; stroke-width:2px;"/><path d="m217.11,160.07c10.36,0,18.28-3.16,23.76-9.5,5.48-6.33,8.22-15.91,8.22-28.75h1.67v39.79h-84.21v-1.29c3.78,0,6.99-.13,9.66-.39,2.66-.26,4.49-.58,5.47-.97.99-.39,1.63-.86,1.93-1.42.3-.56.45-2.05.45-4.46v-66.14c0-2.49-.17-4.05-.52-4.65-.17-.34-.75-.69-1.74-1.03-.99-.34-2.92-.69-5.79-1.03-2.88-.34-6.03-.52-9.46-.52v-1.16h52.92v1.16c-4.81,0-8.56.13-11.27.39s-4.62.6-5.73,1.03c-1.12.43-1.76.82-1.93,1.16-.43.78-.64,2.33-.64,4.65v66.01c0,2.5.17,4.09.51,4.78.17.35.68.69,1.54,1.03,2.91.86,7.96,1.29,15.15,1.29Z" style="fill:url(#f); stroke:url(#g); stroke-miterlimit:10; stroke-width:2px;"/></svg>